<?xml version="1.0" encoding="UTF-8" standalone="no"?>
<!-- Generator: Adobe Illustrator 21.0.0, SVG Export Plug-In . SVG Version: 6.00 Build 0)  -->

<svg
   xmlns:dc="http://purl.org/dc/elements/1.1/"
   xmlns:cc="http://creativecommons.org/ns#"
   xmlns:rdf="http://www.w3.org/1999/02/22-rdf-syntax-ns#"
   xmlns:svg="http://www.w3.org/2000/svg"
   xmlns="http://www.w3.org/2000/svg"
   xmlns:sodipodi="http://sodipodi.sourceforge.net/DTD/sodipodi-0.dtd"
   xmlns:inkscape="http://www.inkscape.org/namespaces/inkscape"
   version="1.1"
   id="Capa_1"
   x="0px"
   y="0px"
   viewBox="0 0 512.002 512.002"
   style="enable-background:new 0 0 512.002 512.002;"
   xml:space="preserve"
   width="512"
   height="512"
   sodipodi:docname="051-snowy-3.svg"
   inkscape:version="0.92.3 (2405546, 2018-03-11)"><metadata
   id="metadata77"><rdf:RDF><cc:Work
       rdf:about=""><dc:format>image/svg+xml</dc:format><dc:type
         rdf:resource="http://purl.org/dc/dcmitype/StillImage" /><dc:title></dc:title></cc:Work></rdf:RDF></metadata><defs
   id="defs75" /><sodipodi:namedview
   pagecolor="#ffffff"
   bordercolor="#666666"
   borderopacity="1"
   objecttolerance="10"
   gridtolerance="10"
   guidetolerance="10"
   inkscape:pageopacity="0"
   inkscape:pageshadow="2"
   inkscape:window-width="1920"
   inkscape:window-height="1001"
   id="namedview73"
   showgrid="false"
   inkscape:zoom="0.921875"
   inkscape:cx="174.42935"
   inkscape:cy="225.05046"
   inkscape:window-x="-9"
   inkscape:window-y="-9"
   inkscape:window-maximized="1"
   inkscape:current-layer="g70" />
<g
   id="g70">
	<path
   style="fill:#BDD9F1;"
   d="M481.016,150c0,49.501-40.499,90-90,90l-165-21l-117.001-15c-11.699-15.599-17.999-34.499-17.999-54   c0-49.501,40.499-90,90-90c3.3,0,6.599,0.3,9.901,0.601c7.8-17.1,20.099-31.501,35.099-41.7c17.1-12.001,37.8-18.9,60-18.9   c41.4,0,77.999,23.699,95.099,60.601C433.315,54.901,481.016,97.2,481.016,150z"
   id="path2" />
	<g
   id="g6"
   style="fill:#d7d7f4">
		<path
   style="fill:#d7d7f4"
   d="M30.986,497.014c0-8.384,6.814-15.016,14.988-15.016c8.384,0,15.016,6.815,15.016,14.988    c0,8.384-6.814,15.016-14.988,15.016C37.618,512.002,30.986,505.187,30.986,497.014z"
   id="path4" />
	</g>
	<g
   id="g10"
   style="fill:#d7d7f4">
		<path
   style="fill:#d7d7f4"
   d="M150.986,497.014c0-8.384,6.814-15.016,14.988-15.016c8.384,0,15.016,6.815,15.016,14.988    c0,8.384-6.814,15.016-14.988,15.016C157.618,512.002,150.986,505.187,150.986,497.014z"
   id="path8" />
	</g>
	<g
   id="g16"
   style="fill:#cccccc">
		<g
   id="g14"
   style="fill:#cccccc">
			<path
   style="fill:#cccccc"
   d="M270.986,497.014c0-8.384,6.814-15.016,14.988-15.016c8.384,0,15.016,6.815,15.016,14.988     c0,8.384-6.814,15.016-14.988,15.016C277.618,512.002,270.986,505.187,270.986,497.014z"
   id="path12" />
		</g>
	</g>
	<g
   id="g20"
   style="fill:#d7d7f4">
		<path
   style="fill:#d7d7f4"
   d="M90.986,452.014c0-8.384,6.814-15.016,14.988-15.016c8.384,0,15.016,6.815,15.016,14.988    c0,8.384-6.814,15.016-14.988,15.016C97.618,467.002,90.986,460.187,90.986,452.014z"
   id="path18" />
	</g>
	<g
   id="g24"
   style="fill:#d7d7f4">
		<path
   style="fill:#d7d7f4"
   d="M241.016,452c0,8.401-6.899,15-15,15c-8.401,0-15-6.899-15-15c0-8.401,6.899-15,15-15    C234.417,437,241.016,443.899,241.016,452z"
   id="path22" />
	</g>
	<g
   id="g30"
   style="fill:#cccccc">
		<g
   id="g28"
   style="fill:#cccccc">
			<path
   style="fill:#cccccc"
   d="M330.986,452.014c0-8.384,6.814-15.016,14.988-15.016c8.384,0,15.016,6.815,15.016,14.988     c0,8.384-6.814,15.016-14.988,15.016C337.618,467.002,330.986,460.187,330.986,452.014z"
   id="path26" />
		</g>
	</g>
	<g
   id="g36"
   style="fill:#cccccc">
		<g
   id="g34"
   style="fill:#cccccc">
			<path
   style="fill:#cccccc"
   d="M390.986,497.014c0-8.384,6.814-15.016,14.988-15.016c8.384,0,15.016,6.815,15.016,14.988     c0,8.384-6.814,15.016-14.988,15.016C397.618,512.002,390.986,505.187,390.986,497.014z"
   id="path32" />
		</g>
	</g>
	<g
   id="g40"
   style="fill:#d7d7f4">
		<path
   style="fill:#d7d7f4"
   d="M30.986,407.014c0-8.384,6.814-15.016,14.988-15.016c8.384,0,15.016,6.815,15.016,14.988    c0,8.384-6.814,15.016-14.988,15.016C37.618,422.002,30.986,415.187,30.986,407.014z"
   id="path38" />
	</g>
	<g
   id="g44"
   style="fill:#d7d7f4">
		<path
   style="fill:#d7d7f4"
   d="M150.986,407.014c0-8.384,6.814-15.016,14.988-15.016c8.384,0,15.016,6.815,15.016,14.988    c0,8.384-6.814,15.016-14.988,15.016C157.618,422.002,150.986,415.187,150.986,407.014z"
   id="path42" />
	</g>
	<g
   id="g50"
   style="fill:#cccccc">
		<g
   id="g48"
   style="fill:#cccccc">
			<path
   style="fill:#cccccc"
   d="M270.986,407.014c0-8.384,6.814-15.016,14.988-15.016c8.384,0,15.016,6.815,15.016,14.988     c0,8.384-6.814,15.016-14.988,15.016C277.618,422.002,270.986,415.187,270.986,407.014z"
   id="path46" />
		</g>
	</g>
	<g
   id="g56"
   style="fill:#cccccc">
		<g
   id="g54"
   style="fill:#cccccc">
			<path
   style="fill:#cccccc"
   d="M390.986,407.014c0-8.384,6.814-15.016,14.988-15.016c8.384,0,15.016,6.815,15.016,14.988     c0,8.384-6.814,15.016-14.988,15.016C397.618,422.002,390.986,415.187,390.986,407.014z"
   id="path52" />
		</g>
	</g>
	<path
   style="fill:#cccccc"
   d="M241.016,452c0,8.401-6.899,15-15,15v-30C234.417,437,241.016,443.899,241.016,452z"
   id="path58" />
	<path
   style="fill:#99B9D9;"
   d="M481.016,150c0,49.501-40.499,90-90,90l-165-21V18.9c17.1-12.001,37.8-18.9,60-18.9   c41.4,0,77.999,23.699,95.099,60.601C433.315,54.901,481.016,97.2,481.016,150z"
   id="path60" />
	<g
   id="g66">
		<g
   id="g64">
			<path
   style="fill:#E0F3FC;"
   d="M321.116,181.601C304.016,144.699,267.416,121,226.016,121s-77.999,23.699-95.099,60.601     c-52.5-5.7-99.901,36.599-99.901,89.399c0,49.501,40.499,90,90,90h210c49.501,0,90-40.499,90-90     C421.016,218.2,373.616,175.901,321.116,181.601z"
   id="path62" />
		</g>
	</g>
	<path
   style="fill:#BDD9F1;"
   d="M421.016,271c0,49.501-40.499,90-90,90h-105V121c41.4,0,77.999,23.699,95.099,60.601   C373.616,175.901,421.016,218.2,421.016,271z"
   id="path68" />
</g>















</svg>