<?xml version="1.0" encoding="iso-8859-1"?>
<!-- Generator: Adobe Illustrator 21.0.0, SVG Export Plug-In . SVG Version: 6.00 Build 0)  -->
<svg xmlns="http://www.w3.org/2000/svg" xmlns:xlink="http://www.w3.org/1999/xlink" version="1.1" id="Capa_1" x="0px" y="0px" viewBox="0 0 512.042 512.042" style="enable-background:new 0 0 512.042 512.042;" xml:space="preserve" width="512" height="512">
<g>
	<path style="fill:#61729B;" d="M399.192,284.2c-16.8,15.599-33.3,30.899-45.899,46.8l-19.2,9.3l-17.1,8.399l16.8,12.301   c-4.501,10.199-7.2,20.4-7.2,31.199c0,36.601,2.699,43.9,7.5,59.2c2.999,9,6.301,20.7,10.8,42.599   c1.8,8.401-3.6,15.601-10.8,17.401c-2.999,0.901-5.7,0.901-8.699-0.3c-1.8-0.599-180-63.1-162.001-240.099l23.399-13.2L166.692,241   c2.401-54.3-36.899-109.501-75-150l12.599-14.101L61.093,61c-22.202-20.101-39.001-33.401-39.6-33.701c-5.4-3.9-7.5-10.8-5.7-16.8   C17.893,4.2,23.593,0,30.192,0h420c5.4,0,10.499,2.999,12.9,7.5C543.492,147.9,463.392,223.9,399.192,284.2z"/>
	<path style="fill:#47568C;" d="M399.192,284.2c-16.8,15.599-33.3,30.899-45.899,46.8l-19.2,9.3V0h116.1   c5.4,0,10.499,2.999,12.9,7.5C543.492,147.9,463.392,223.9,399.192,284.2z"/>
	<g>
		<g>
			<path style="fill:#FCD82D;" d="M433.392,98.5c-2.701-4.501-7.8-7.5-13.2-7.5h-75V15c0-6.601-4.501-12.601-11.1-14.401     C332.893,0.3,331.391,0,330.192,0c-5.099,0-9.901,2.699-12.9,7.2l-90,151c-2.701,4.799-2.701,10.499-0.3,15.3     c2.701,4.499,7.8,7.5,13.2,7.5h75v75c0,6.599,4.501,12.599,11.1,14.399c1.199,0.3,2.701,0.601,3.9,0.601s2.401-0.3,3.9-0.601     c3.6-0.899,6.899-3.3,9-6.599l90-150C435.793,108.999,435.793,103.299,433.392,98.5z"/>
		</g>
	</g>
	<g>
		<path style="fill:#2C3B73;" d="M353.293,331c-8.101,9.899-15,19.799-19.501,30h-93.6c-8.401,0-15-6.601-15-15    c0-8.401,6.599-15,15-15H353.293z"/>
	</g>
	<g>
		<path style="fill:#47568C;" d="M255.192,256c0,8.399-6.599,15-15,15h-76.8c0.3-5.7,1.199-11.4,2.1-17.401    c0.601-4.2,1.199-8.399,1.199-12.599h73.5C248.593,241,255.192,247.599,255.192,256z"/>
	</g>
	<g>
		<path style="fill:#47568C;" d="M195.192,76c0,8.399-6.599,15-15,15h-88.5c-10.499-11.1-21-21.301-30.599-30h119.099    C188.593,61,195.192,67.599,195.192,76z"/>
	</g>
	<path style="fill:#F9BD13;" d="M433.092,113.8l-90,150c-2.1,3.3-5.4,5.7-9,6.599V0.599c6.599,1.8,11.1,7.8,11.1,14.401v76h75   c5.4,0,10.499,2.999,13.2,7.5C435.793,103.299,435.793,108.999,433.092,113.8z"/>
</g>















</svg>
