<?xml version="1.0" encoding="iso-8859-1"?>
<!-- Generator: Adobe Illustrator 21.0.0, SVG Export Plug-In . SVG Version: 6.00 Build 0)  -->
<svg xmlns="http://www.w3.org/2000/svg" xmlns:xlink="http://www.w3.org/1999/xlink" version="1.1" id="Capa_1" x="0px" y="0px" viewBox="0 0 512 512" style="enable-background:new 0 0 512 512;" xml:space="preserve" width="512" height="512">
<g>
	<path style="fill:#BDD9F1;" d="M481,150c0,49.501-40.499,90-90,90l-165-21l-117.001-15C97.301,188.401,91,169.501,91,150   c0-49.501,40.499-90,90-90c3.3,0,6.599,0.3,9.901,0.601C198.701,43.5,211,29.099,226,18.9C243.1,6.899,263.8,0,286,0   c41.4,0,77.999,23.699,95.099,60.601C433.299,54.901,481,97.2,481,150z"/>
	<path style="fill:#99B9D9;" d="M481,150c0,49.501-40.499,90-90,90l-165-21V18.9C243.1,6.899,263.8,0,286,0   c41.4,0,77.999,23.699,95.099,60.601C433.299,54.901,481,97.2,481,150z"/>
	<g>
		<path style="fill:#E0F3FC;" d="M321.099,181.601C303.999,144.699,267.4,121,226,121s-77.999,23.699-95.099,60.601    C78.401,175.901,31,218.2,31,271c0,49.501,40.499,90,90,90h210c49.501,0,90-40.499,90-90    C421,218.2,373.599,175.901,321.099,181.601z"/>
	</g>
	<g>
		<path style="fill:#25D9F8;" d="M346,512h-90c-8.291,0-15-6.709-15-15s6.709-15,15-15h90c8.276,0,15-6.724,15-15s-6.724-15-15-15    c-8.291,0-15-6.709-15-15s6.709-15,15-15c24.814,0,45,20.186,45,45S370.814,512,346,512z"/>
	</g>
	<g>
		<path style="fill:#76E2F8;" d="M196,482H76c-8.291,0-15-6.709-15-15s6.709-15,15-15h120c8.276,0,15-6.724,15-15s-6.724-15-15-15    c-8.291,0-15-6.709-15-15s6.709-15,15-15c24.814,0,45,20.186,45,45S220.814,482,196,482z"/>
	</g>
	<g>
		<path style="fill:#76E2F8;" d="M136,422H76c-8.291,0-15-6.709-15-15s6.709-15,15-15h60c8.291,0,15,6.709,15,15    S144.291,422,136,422z"/>
	</g>
	<path style="fill:#BDD9F1;" d="M421,271c0,49.501-40.499,90-90,90H226V121c41.4,0,77.999,23.699,95.099,60.601   C373.599,175.901,421,218.2,421,271z"/>
</g>















</svg>
